<?xml version="1.0" standalone="no"?>
<!DOCTYPE svg PUBLIC "-//W3C//DTD SVG 20010904//EN"
 "http://www.w3.org/TR/2001/REC-SVG-20010904/DTD/svg10.dtd">
<svg version="1.0" xmlns="http://www.w3.org/2000/svg"
 width="500.000000pt" height="500.000000pt" viewBox="0 0 500.000000 500.000000"
 preserveAspectRatio="xMidYMid meet">
<metadata>
Created by potrace 1.11, written by Peter Selinger 2001-2013
</metadata>
<g transform="translate(0.000000,500.000000) scale(0.100000,-0.100000)"
fill="#000000" stroke="none">
<path d="M0 2500 l0 -2500 2500 0 2500 0 0 2500 0 2500 -2500 0 -2500 0 0
-2500z m1746 1209 c107 -16 235 -57 339 -109 105 -52 243 -155 284 -211 l24
-33 -129 -122 -129 -122 -53 49 c-102 93 -199 147 -332 184 -100 28 -309 26
-420 -4 -217 -57 -385 -193 -480 -386 -54 -109 -71 -180 -77 -315 -11 -238 57
-426 207 -581 124 -126 275 -199 462 -221 239 -28 466 44 643 204 l51 46 129
-124 130 -124 -81 -78 c-173 -166 -388 -256 -680 -282 -596 -54 -1098 281
-1244 831 -31 116 -39 376 -16 500 116 621 694 999 1372 898z m2053 -19 c265
-21 461 -98 610 -243 144 -140 211 -309 211 -532 0 -298 -140 -532 -391 -656
-35 -17 -66 -33 -67 -34 -2 -2 107 -162 242 -355 135 -193 246 -356 246 -361
0 -5 -89 -9 -213 -9 l-213 0 -224 320 -224 320 -288 0 -288 0 -2 -317 -3 -318
-202 -3 -203 -2 0 1100 0 1100 438 0 c240 0 497 -5 571 -10z"/>
<path d="M3200 2916 l0 -436 285 0 c218 0 304 4 363 15 235 48 362 195 362
420 0 213 -109 351 -325 411 -48 14 -122 18 -372 21 l-313 5 0 -436z"/>
</g>
</svg>
